<?xml version="1.0" encoding="UTF-8" standalone="no"?>
<!DOCTYPE svg PUBLIC "-//W3C//DTD SVG 1.1//EN" "http://www.w3.org/Graphics/SVG/1.1/DTD/svg11.dtd">
<svg width="100%" height="100%" viewBox="0 0 125 125" version="1.1" xmlns="http://www.w3.org/2000/svg" xmlns:xlink="http://www.w3.org/1999/xlink" xml:space="preserve" xmlns:serif="http://www.serif.com/" style="fill-rule:evenodd;clip-rule:evenodd;stroke-linejoin:round;stroke-miterlimit:1.41421;">
    <g id="logo" transform="matrix(2.43532,0,0,2.43532,4.5,10.0968)">
        <g transform="matrix(1,0,0,1,0,-1.80498)">
            <path d="M23.83,16.052C27.843,16.052 31.101,19.31 31.101,23.323C31.101,27.336 27.843,30.594 23.83,30.594C19.817,30.594 16.559,27.336 16.559,23.323C16.559,19.31 19.817,16.052 23.83,16.052ZM24.066,18.457L25.338,21.468L28.595,21.747C28.821,21.767 28.913,22.049 28.741,22.197L26.271,24.337L27.011,27.521C27.063,27.742 26.823,27.916 26.629,27.798L23.83,26.111L21.032,27.798C20.837,27.915 20.598,27.741 20.649,27.521L21.39,24.337L18.919,22.197C18.748,22.048 18.839,21.766 19.065,21.747L22.322,21.467L23.594,18.457C23.682,18.248 23.978,18.248 24.066,18.457Z"/>
        </g>
        <g transform="matrix(1,0,0,1,0,-1.8224)">
            <path d="M26.134,38.074L25.07,33.455C25.005,33.173 25.181,32.891 25.464,32.826L26.487,32.59C26.769,32.525 27.051,32.701 27.116,32.984L28.182,37.61C30.469,37.67 32.308,39.546 32.308,41.848C32.308,44.189 30.408,46.089 28.068,46.089C25.727,46.089 23.827,44.189 23.827,41.848C23.827,40.204 24.765,38.778 26.134,38.074Z"/>
        </g>
        <g transform="matrix(1,0,0,1,0,-1.8224)">
            <path d="M38.773,23.746C39.364,22.117 40.927,20.952 42.759,20.952C45.1,20.952 47,22.852 47,25.193C47,27.533 45.1,29.433 42.759,29.433C40.638,29.433 38.878,27.871 38.568,25.836L33.835,25.364C33.547,25.335 33.336,25.078 33.365,24.79L33.469,23.745C33.498,23.457 33.755,23.246 34.043,23.275L38.773,23.746Z"/>
        </g>
        <g transform="matrix(1,0,0,1,0,-1.8224)">
            <path d="M13.272,14.8C11.811,15.731 9.862,15.704 8.408,14.588C6.552,13.162 6.202,10.498 7.628,8.642C9.053,6.785 11.718,6.436 13.574,7.861C15.257,9.153 15.701,11.464 14.708,13.267L17.194,15.603C17.405,15.801 17.415,16.134 17.217,16.345L16.498,17.11C16.3,17.322 15.967,17.332 15.756,17.134L13.272,14.8Z"/>
        </g>
        <g transform="matrix(1,0,0,1,0,-1.8224)">
            <path d="M31.649,8.162C30.879,7.394 30.403,6.333 30.403,5.161C30.403,2.82 32.303,0.92 34.643,0.92C36.983,0.92 38.884,2.82 38.884,5.161C38.884,7.501 36.983,9.401 34.643,9.401C34.224,9.401 33.82,9.341 33.437,9.227C33.426,9.258 33.412,9.288 33.395,9.317L29.914,15.145C29.765,15.393 29.443,15.475 29.194,15.326L28.292,14.788C28.044,14.639 27.962,14.317 28.111,14.068L31.592,8.24C31.609,8.212 31.628,8.186 31.649,8.162Z"/>
        </g>
        <g transform="matrix(1,0,0,1,0,-1.8224)">
            <path d="M7.803,27.592C7.832,27.576 7.862,27.563 7.894,27.552L13.879,25.549C14.153,25.457 14.451,25.605 14.543,25.88L14.876,26.876C14.968,27.15 14.82,27.448 14.545,27.54L8.561,29.543C8.53,29.554 8.498,29.561 8.467,29.566C8.551,30.65 8.221,31.765 7.457,32.655C5.933,34.43 3.254,34.635 1.478,33.11C-0.298,31.586 -0.502,28.907 1.022,27.131C2.546,25.355 5.226,25.151 7.002,26.675C7.319,26.948 7.587,27.257 7.803,27.592Z"/>
        </g>
    </g>
</svg>
