<?xml version="1.0" encoding="UTF-8" standalone="no"?>
<!DOCTYPE svg PUBLIC "-//W3C//DTD SVG 1.1//EN" "http://www.w3.org/Graphics/SVG/1.1/DTD/svg11.dtd">
<svg width="100%" height="100%" viewBox="0 0 956 196" version="1.1" xmlns="http://www.w3.org/2000/svg" xmlns:xlink="http://www.w3.org/1999/xlink" xml:space="preserve" xmlns:serif="http://www.serif.com/" style="fill-rule:evenodd;clip-rule:evenodd;stroke-linejoin:round;stroke-miterlimit:2;">
    <g transform="matrix(1,0,0,1,-437.231,-298.556)">
        <g>
            <g transform="matrix(160,0,0,160,661.668,415.598)">
                <path d="M0.441,-0.02C0.44,-0.026 0.439,-0.036 0.438,-0.051C0.436,-0.065 0.435,-0.081 0.433,-0.099C0.431,-0.116 0.429,-0.135 0.427,-0.155C0.425,-0.175 0.423,-0.194 0.421,-0.211C0.419,-0.229 0.417,-0.245 0.416,-0.259C0.414,-0.273 0.413,-0.284 0.412,-0.291C0.411,-0.298 0.41,-0.306 0.411,-0.315C0.411,-0.325 0.41,-0.335 0.409,-0.346C0.407,-0.356 0.404,-0.366 0.401,-0.375C0.397,-0.384 0.392,-0.391 0.385,-0.395C0.361,-0.382 0.338,-0.372 0.314,-0.365C0.291,-0.359 0.266,-0.355 0.24,-0.355C0.202,-0.355 0.163,-0.379 0.125,-0.426C0.122,-0.426 0.121,-0.424 0.12,-0.42C0.119,-0.416 0.118,-0.411 0.117,-0.406C0.117,-0.401 0.116,-0.396 0.117,-0.39C0.117,-0.384 0.117,-0.379 0.117,-0.375L0.116,-0.049C0.116,-0.045 0.115,-0.042 0.113,-0.039C0.111,-0.036 0.108,-0.034 0.104,-0.032C0.101,-0.031 0.098,-0.03 0.094,-0.029C0.091,-0.028 0.087,-0.027 0.084,-0.027C0.074,-0.027 0.067,-0.032 0.063,-0.041C0.059,-0.049 0.057,-0.058 0.056,-0.066L0.056,-0.207C0.056,-0.25 0.057,-0.292 0.061,-0.334C0.065,-0.376 0.066,-0.418 0.066,-0.461C0.066,-0.474 0.064,-0.486 0.059,-0.496C0.053,-0.507 0.048,-0.517 0.042,-0.527C0.036,-0.537 0.031,-0.547 0.026,-0.557C0.021,-0.567 0.019,-0.578 0.019,-0.591C0.019,-0.604 0.025,-0.611 0.038,-0.611C0.054,-0.611 0.068,-0.606 0.079,-0.597C0.09,-0.587 0.1,-0.575 0.108,-0.562C0.117,-0.548 0.125,-0.533 0.133,-0.516C0.141,-0.499 0.15,-0.483 0.161,-0.47C0.171,-0.456 0.184,-0.444 0.198,-0.435C0.212,-0.425 0.229,-0.42 0.25,-0.42C0.276,-0.419 0.298,-0.423 0.315,-0.432C0.332,-0.442 0.346,-0.454 0.357,-0.468C0.368,-0.483 0.376,-0.499 0.383,-0.516C0.39,-0.533 0.396,-0.549 0.401,-0.564C0.407,-0.579 0.412,-0.59 0.418,-0.6C0.424,-0.609 0.432,-0.612 0.441,-0.61C0.449,-0.612 0.454,-0.61 0.458,-0.605C0.461,-0.601 0.464,-0.595 0.466,-0.588C0.468,-0.582 0.469,-0.575 0.469,-0.568C0.47,-0.562 0.47,-0.557 0.47,-0.555C0.47,-0.53 0.468,-0.506 0.464,-0.484C0.461,-0.461 0.459,-0.438 0.459,-0.412C0.459,-0.379 0.461,-0.346 0.466,-0.313C0.47,-0.281 0.476,-0.248 0.482,-0.215C0.488,-0.182 0.494,-0.15 0.499,-0.117C0.503,-0.085 0.506,-0.052 0.506,-0.02C0.506,-0.014 0.505,-0.01 0.504,-0.007C0.503,-0.004 0.501,-0.001 0.498,0C0.495,0.001 0.493,0.002 0.489,0.002C0.486,0.002 0.482,0.002 0.479,0.002C0.47,0.002 0.462,0.001 0.456,-0.001C0.449,-0.003 0.444,-0.009 0.441,-0.02Z" style="fill-rule:nonzero;"/>
            </g>
            <g transform="matrix(160,0,0,160,747.136,415.598)">
                <path d="M0.019,-0.165C0.019,-0.176 0.022,-0.189 0.028,-0.203C0.034,-0.217 0.043,-0.231 0.056,-0.245C0.068,-0.259 0.084,-0.271 0.103,-0.282C0.121,-0.292 0.144,-0.3 0.169,-0.305C0.195,-0.309 0.224,-0.31 0.257,-0.306C0.29,-0.302 0.327,-0.292 0.367,-0.276L0.367,-0.286L0.366,-0.295C0.366,-0.312 0.361,-0.329 0.352,-0.347C0.342,-0.364 0.329,-0.38 0.314,-0.394C0.299,-0.408 0.282,-0.419 0.265,-0.428C0.247,-0.437 0.23,-0.441 0.214,-0.441C0.207,-0.441 0.202,-0.44 0.197,-0.438C0.192,-0.437 0.187,-0.434 0.183,-0.431C0.178,-0.428 0.174,-0.426 0.169,-0.423C0.165,-0.421 0.16,-0.42 0.154,-0.42C0.153,-0.42 0.152,-0.42 0.152,-0.421L0.145,-0.428C0.143,-0.43 0.142,-0.431 0.142,-0.432C0.142,-0.443 0.144,-0.453 0.148,-0.462C0.152,-0.47 0.158,-0.477 0.166,-0.482C0.173,-0.488 0.181,-0.492 0.191,-0.495C0.2,-0.498 0.21,-0.499 0.221,-0.499C0.247,-0.496 0.272,-0.488 0.295,-0.475C0.319,-0.462 0.341,-0.445 0.361,-0.425C0.381,-0.405 0.398,-0.381 0.413,-0.355C0.428,-0.329 0.441,-0.301 0.451,-0.273C0.461,-0.245 0.467,-0.216 0.471,-0.188C0.475,-0.158 0.475,-0.13 0.472,-0.104C0.471,-0.104 0.469,-0.104 0.466,-0.104C0.463,-0.104 0.459,-0.105 0.455,-0.105C0.451,-0.105 0.448,-0.106 0.445,-0.106L0.44,-0.107C0.427,-0.138 0.411,-0.163 0.395,-0.182C0.378,-0.201 0.361,-0.215 0.344,-0.226C0.328,-0.237 0.312,-0.244 0.298,-0.249C0.284,-0.253 0.272,-0.256 0.263,-0.258C0.253,-0.258 0.241,-0.257 0.228,-0.256C0.215,-0.255 0.201,-0.252 0.187,-0.249C0.172,-0.246 0.158,-0.241 0.143,-0.236C0.128,-0.23 0.115,-0.224 0.104,-0.216C0.093,-0.208 0.083,-0.199 0.077,-0.188C0.07,-0.177 0.066,-0.165 0.066,-0.15C0.066,-0.135 0.073,-0.122 0.085,-0.111C0.097,-0.1 0.112,-0.091 0.13,-0.084C0.147,-0.078 0.165,-0.073 0.184,-0.07C0.202,-0.068 0.216,-0.066 0.228,-0.066C0.246,-0.066 0.264,-0.067 0.281,-0.069C0.299,-0.071 0.316,-0.074 0.333,-0.076C0.351,-0.079 0.368,-0.081 0.385,-0.083C0.402,-0.085 0.419,-0.086 0.436,-0.086L0.442,-0.086L0.462,-0.085L0.469,-0.085C0.474,-0.083 0.477,-0.08 0.478,-0.076C0.478,-0.072 0.479,-0.068 0.479,-0.064C0.479,-0.061 0.474,-0.056 0.466,-0.052C0.458,-0.047 0.448,-0.043 0.435,-0.038C0.422,-0.034 0.407,-0.029 0.391,-0.024C0.375,-0.019 0.36,-0.015 0.345,-0.012C0.331,-0.008 0.317,-0.006 0.304,-0.003C0.292,-0.001 0.283,0 0.277,0C0.25,0 0.221,-0.002 0.19,-0.007C0.16,-0.011 0.132,-0.02 0.106,-0.032C0.081,-0.044 0.06,-0.061 0.043,-0.082C0.027,-0.104 0.019,-0.131 0.019,-0.165Z" style="fill-rule:nonzero;"/>
            </g>
            <g transform="matrix(160,0,0,160,828.074,415.598)">
                <path d="M-0.131,0.271C-0.133,0.262 -0.133,0.254 -0.13,0.247C-0.127,0.24 -0.123,0.234 -0.118,0.229C-0.113,0.225 -0.107,0.222 -0.101,0.221C-0.095,0.219 -0.09,0.22 -0.085,0.223C-0.081,0.226 -0.079,0.231 -0.078,0.239C-0.077,0.247 -0.079,0.258 -0.084,0.271C-0.084,0.286 -0.078,0.3 -0.066,0.313C-0.054,0.327 -0.038,0.34 -0.019,0.351C0,0.362 0.021,0.372 0.044,0.381C0.067,0.39 0.089,0.398 0.11,0.404C0.132,0.411 0.151,0.416 0.168,0.419C0.184,0.422 0.195,0.424 0.203,0.424C0.219,0.424 0.233,0.42 0.245,0.411C0.256,0.403 0.266,0.392 0.274,0.378C0.282,0.364 0.289,0.349 0.293,0.332C0.298,0.314 0.302,0.297 0.305,0.28C0.307,0.263 0.309,0.246 0.31,0.229C0.31,0.213 0.311,0.2 0.311,0.188C0.311,0.183 0.31,0.174 0.309,0.16C0.308,0.146 0.307,0.13 0.305,0.111C0.303,0.093 0.3,0.074 0.298,0.055C0.295,0.035 0.292,0.017 0.289,0C0.286,-0.017 0.282,-0.031 0.279,-0.041C0.275,-0.051 0.271,-0.057 0.268,-0.057C0.261,-0.057 0.253,-0.055 0.245,-0.051C0.236,-0.047 0.227,-0.043 0.217,-0.038C0.208,-0.034 0.198,-0.029 0.188,-0.025C0.179,-0.021 0.169,-0.02 0.16,-0.02C0.142,-0.02 0.124,-0.023 0.106,-0.031C0.089,-0.039 0.074,-0.049 0.061,-0.062C0.048,-0.074 0.038,-0.089 0.03,-0.105C0.022,-0.122 0.019,-0.14 0.019,-0.158C0.019,-0.187 0.024,-0.216 0.036,-0.246C0.047,-0.276 0.063,-0.303 0.083,-0.328C0.102,-0.353 0.126,-0.373 0.153,-0.389C0.18,-0.404 0.209,-0.412 0.239,-0.412C0.263,-0.406 0.282,-0.391 0.296,-0.368C0.311,-0.345 0.322,-0.316 0.331,-0.282C0.339,-0.248 0.345,-0.211 0.348,-0.169C0.352,-0.128 0.354,-0.086 0.355,-0.043C0.357,0 0.358,0.042 0.359,0.083C0.36,0.125 0.362,0.162 0.366,0.196C0.366,0.211 0.365,0.229 0.364,0.25C0.362,0.27 0.359,0.291 0.355,0.312C0.352,0.334 0.346,0.355 0.339,0.376C0.333,0.398 0.324,0.417 0.313,0.433C0.301,0.45 0.288,0.463 0.272,0.473C0.256,0.483 0.238,0.488 0.217,0.488C0.2,0.488 0.18,0.486 0.156,0.482C0.132,0.479 0.107,0.472 0.082,0.464C0.056,0.455 0.03,0.445 0.005,0.433C-0.021,0.42 -0.043,0.406 -0.063,0.39C-0.084,0.374 -0.1,0.356 -0.112,0.336C-0.125,0.317 -0.131,0.295 -0.131,0.271ZM0.074,-0.175C0.074,-0.163 0.076,-0.152 0.08,-0.141C0.083,-0.13 0.088,-0.121 0.095,-0.112C0.102,-0.104 0.111,-0.097 0.121,-0.092C0.131,-0.087 0.142,-0.085 0.154,-0.085C0.188,-0.085 0.213,-0.091 0.23,-0.104C0.247,-0.118 0.259,-0.134 0.266,-0.153C0.272,-0.173 0.275,-0.194 0.275,-0.216C0.275,-0.239 0.274,-0.259 0.272,-0.277C0.272,-0.286 0.272,-0.296 0.271,-0.305C0.269,-0.314 0.267,-0.322 0.263,-0.33C0.259,-0.338 0.253,-0.344 0.247,-0.349C0.24,-0.353 0.231,-0.355 0.221,-0.355C0.199,-0.355 0.179,-0.349 0.161,-0.337C0.143,-0.325 0.127,-0.31 0.115,-0.292C0.102,-0.275 0.092,-0.255 0.085,-0.234C0.078,-0.213 0.074,-0.193 0.074,-0.175Z" style="fill-rule:nonzero;"/>
            </g>
            <g transform="matrix(160,0,0,160,886.668,415.598)">
                <path d="M0.062,-0.338L0.062,-0.353L0.063,-0.397L0.063,-0.412C0.06,-0.432 0.066,-0.442 0.08,-0.442C0.087,-0.442 0.092,-0.441 0.097,-0.438C0.101,-0.434 0.105,-0.429 0.109,-0.423C0.107,-0.389 0.109,-0.356 0.114,-0.325C0.119,-0.293 0.124,-0.262 0.13,-0.231C0.137,-0.2 0.142,-0.169 0.148,-0.138C0.153,-0.106 0.156,-0.074 0.156,-0.04C0.156,-0.031 0.153,-0.022 0.148,-0.013C0.142,-0.004 0.134,0.001 0.123,0.001C0.115,0.001 0.107,-0.006 0.101,-0.021C0.095,-0.036 0.09,-0.054 0.085,-0.077C0.08,-0.099 0.076,-0.124 0.073,-0.151C0.07,-0.179 0.068,-0.205 0.066,-0.23C0.064,-0.255 0.063,-0.278 0.063,-0.297C0.062,-0.317 0.062,-0.331 0.062,-0.338Z" style="fill-rule:nonzero;"/>
            </g>
            <g transform="matrix(160,0,0,160,914.636,415.598)">
                <path d="M0.019,-0.218C0.019,-0.246 0.024,-0.274 0.035,-0.301C0.046,-0.328 0.061,-0.352 0.081,-0.373C0.1,-0.394 0.122,-0.41 0.147,-0.423C0.173,-0.435 0.2,-0.441 0.229,-0.441C0.242,-0.441 0.255,-0.44 0.27,-0.437C0.285,-0.434 0.299,-0.429 0.312,-0.423C0.325,-0.416 0.335,-0.408 0.344,-0.397C0.352,-0.386 0.356,-0.373 0.356,-0.356C0.356,-0.354 0.356,-0.349 0.354,-0.341C0.352,-0.333 0.35,-0.325 0.348,-0.317C0.345,-0.31 0.342,-0.303 0.338,-0.296C0.335,-0.29 0.332,-0.287 0.329,-0.287C0.329,-0.318 0.321,-0.343 0.304,-0.364C0.287,-0.384 0.262,-0.395 0.229,-0.395C0.205,-0.395 0.183,-0.389 0.163,-0.379C0.144,-0.368 0.127,-0.355 0.114,-0.338C0.101,-0.321 0.091,-0.302 0.084,-0.281C0.078,-0.26 0.074,-0.238 0.074,-0.216C0.074,-0.186 0.079,-0.161 0.089,-0.142C0.099,-0.122 0.112,-0.106 0.129,-0.094C0.146,-0.082 0.165,-0.073 0.188,-0.067C0.21,-0.062 0.233,-0.058 0.258,-0.056C0.283,-0.054 0.307,-0.053 0.332,-0.054C0.357,-0.054 0.381,-0.055 0.403,-0.057C0.405,-0.057 0.409,-0.055 0.413,-0.053C0.418,-0.05 0.421,-0.049 0.423,-0.048L0.424,-0.042C0.424,-0.035 0.42,-0.029 0.413,-0.023C0.406,-0.018 0.397,-0.014 0.387,-0.011C0.376,-0.007 0.365,-0.005 0.353,-0.004C0.34,-0.003 0.328,-0.001 0.316,0C0.304,0 0.293,0.001 0.284,0.001C0.275,0.001 0.269,0.001 0.265,0.001C0.227,0.001 0.193,-0.003 0.163,-0.012C0.132,-0.02 0.107,-0.033 0.085,-0.051C0.064,-0.069 0.048,-0.092 0.036,-0.12C0.024,-0.147 0.019,-0.18 0.019,-0.218Z" style="fill-rule:nonzero;"/>
            </g>
            <g transform="matrix(160,0,0,160,1046.51,415.598)">
                <path d="M0.243,-0.061C0.243,-0.066 0.244,-0.071 0.246,-0.077C0.247,-0.082 0.251,-0.085 0.258,-0.085C0.261,-0.085 0.269,-0.083 0.283,-0.08C0.296,-0.076 0.311,-0.072 0.326,-0.067C0.342,-0.063 0.357,-0.059 0.372,-0.055C0.387,-0.051 0.397,-0.049 0.403,-0.048L0.408,-0.048C0.437,-0.048 0.466,-0.053 0.495,-0.064C0.524,-0.075 0.551,-0.09 0.575,-0.109C0.599,-0.129 0.619,-0.152 0.634,-0.177C0.65,-0.203 0.657,-0.231 0.657,-0.261C0.657,-0.284 0.653,-0.307 0.644,-0.33C0.634,-0.352 0.622,-0.374 0.607,-0.395C0.592,-0.415 0.574,-0.435 0.553,-0.452C0.533,-0.47 0.511,-0.486 0.488,-0.5C0.465,-0.514 0.442,-0.525 0.419,-0.535C0.396,-0.545 0.373,-0.552 0.352,-0.556C0.352,-0.514 0.356,-0.475 0.362,-0.438C0.368,-0.4 0.374,-0.365 0.38,-0.331C0.387,-0.296 0.391,-0.263 0.395,-0.23C0.398,-0.198 0.398,-0.165 0.395,-0.133L0.395,-0.121C0.395,-0.116 0.394,-0.112 0.392,-0.108C0.39,-0.104 0.388,-0.1 0.384,-0.098C0.381,-0.095 0.376,-0.094 0.371,-0.094C0.361,-0.089 0.354,-0.09 0.349,-0.1C0.343,-0.109 0.34,-0.123 0.337,-0.141C0.334,-0.16 0.333,-0.182 0.332,-0.207C0.331,-0.232 0.33,-0.259 0.329,-0.287C0.327,-0.314 0.325,-0.341 0.322,-0.368C0.32,-0.395 0.315,-0.419 0.31,-0.441C0.308,-0.449 0.307,-0.459 0.305,-0.472C0.303,-0.484 0.3,-0.497 0.297,-0.51C0.294,-0.524 0.29,-0.536 0.286,-0.547C0.281,-0.559 0.277,-0.567 0.272,-0.572C0.226,-0.572 0.188,-0.571 0.16,-0.568C0.132,-0.565 0.11,-0.562 0.093,-0.558C0.077,-0.554 0.065,-0.55 0.057,-0.545C0.05,-0.541 0.043,-0.538 0.037,-0.535L0.035,-0.534C0.034,-0.534 0.033,-0.533 0.032,-0.533C0.031,-0.533 0.03,-0.534 0.03,-0.534C0.03,-0.535 0.029,-0.535 0.028,-0.535C0.028,-0.536 0.027,-0.537 0.026,-0.539L0.021,-0.556C0.02,-0.559 0.02,-0.561 0.02,-0.563L0.02,-0.566C0.02,-0.576 0.024,-0.583 0.034,-0.59C0.043,-0.596 0.055,-0.602 0.069,-0.606C0.083,-0.611 0.098,-0.615 0.115,-0.618C0.132,-0.621 0.148,-0.623 0.163,-0.624C0.177,-0.625 0.19,-0.626 0.2,-0.627C0.21,-0.628 0.215,-0.629 0.216,-0.629C0.249,-0.629 0.285,-0.625 0.322,-0.618C0.36,-0.61 0.397,-0.599 0.434,-0.585C0.471,-0.571 0.506,-0.553 0.54,-0.532C0.573,-0.511 0.603,-0.486 0.628,-0.459C0.654,-0.432 0.675,-0.401 0.69,-0.367C0.705,-0.333 0.713,-0.297 0.713,-0.258C0.713,-0.222 0.707,-0.19 0.696,-0.161C0.685,-0.132 0.67,-0.107 0.65,-0.086C0.631,-0.064 0.608,-0.046 0.582,-0.032C0.556,-0.017 0.528,-0.006 0.499,0C0.47,0.007 0.44,0.011 0.409,0.011C0.378,0.011 0.348,0.007 0.318,0C0.313,-0.002 0.305,-0.005 0.297,-0.008C0.288,-0.012 0.28,-0.016 0.272,-0.021C0.264,-0.025 0.257,-0.031 0.251,-0.038C0.246,-0.044 0.243,-0.052 0.243,-0.061Z" style="fill-rule:nonzero;"/>
            </g>
            <g transform="matrix(160,0,0,160,1165.11,415.598)">
                <path d="M0.019,-0.262C0.019,-0.296 0.024,-0.328 0.034,-0.359C0.044,-0.39 0.058,-0.417 0.078,-0.44C0.097,-0.464 0.12,-0.483 0.148,-0.497C0.176,-0.511 0.208,-0.518 0.244,-0.518C0.266,-0.515 0.284,-0.509 0.3,-0.5C0.316,-0.491 0.329,-0.48 0.339,-0.466C0.349,-0.453 0.357,-0.438 0.361,-0.42C0.365,-0.403 0.367,-0.385 0.367,-0.365C0.367,-0.342 0.36,-0.321 0.347,-0.302C0.333,-0.283 0.316,-0.267 0.295,-0.254C0.274,-0.242 0.252,-0.232 0.228,-0.225C0.203,-0.218 0.181,-0.215 0.16,-0.215L0.136,-0.215C0.128,-0.215 0.121,-0.216 0.114,-0.219C0.108,-0.221 0.103,-0.225 0.099,-0.23C0.095,-0.236 0.093,-0.243 0.093,-0.254C0.093,-0.257 0.093,-0.26 0.094,-0.262C0.095,-0.264 0.098,-0.266 0.103,-0.267C0.107,-0.268 0.114,-0.268 0.123,-0.268C0.132,-0.266 0.145,-0.264 0.16,-0.262C0.169,-0.262 0.182,-0.265 0.2,-0.271C0.217,-0.277 0.235,-0.285 0.252,-0.295C0.27,-0.305 0.286,-0.316 0.299,-0.329C0.312,-0.341 0.318,-0.354 0.318,-0.366C0.318,-0.379 0.316,-0.392 0.312,-0.405C0.308,-0.417 0.301,-0.429 0.293,-0.438C0.285,-0.448 0.275,-0.456 0.263,-0.462C0.252,-0.468 0.239,-0.47 0.225,-0.469C0.202,-0.467 0.181,-0.461 0.163,-0.45C0.144,-0.44 0.128,-0.426 0.115,-0.41C0.102,-0.393 0.092,-0.375 0.085,-0.354C0.078,-0.334 0.074,-0.313 0.074,-0.291C0.074,-0.274 0.075,-0.257 0.075,-0.24C0.076,-0.223 0.078,-0.207 0.083,-0.19C0.087,-0.174 0.094,-0.159 0.103,-0.144C0.112,-0.129 0.126,-0.115 0.144,-0.104C0.162,-0.093 0.185,-0.083 0.212,-0.076C0.239,-0.068 0.273,-0.063 0.313,-0.062L0.488,-0.073C0.478,-0.059 0.465,-0.047 0.449,-0.038C0.433,-0.029 0.416,-0.022 0.398,-0.016C0.38,-0.011 0.362,-0.007 0.345,-0.004C0.327,-0.001 0.311,0 0.295,0C0.257,0 0.222,-0.006 0.188,-0.019C0.155,-0.031 0.126,-0.048 0.101,-0.071C0.075,-0.093 0.055,-0.121 0.041,-0.153C0.026,-0.185 0.019,-0.221 0.019,-0.262Z" style="fill-rule:nonzero;"/>
            </g>
            <g transform="matrix(160,0,0,160,1247.61,415.598)">
                <path d="M0.017,-0.118C0.022,-0.122 0.027,-0.125 0.031,-0.125C0.035,-0.126 0.04,-0.127 0.045,-0.127C0.051,-0.127 0.057,-0.125 0.063,-0.123C0.068,-0.12 0.074,-0.116 0.079,-0.112C0.083,-0.108 0.089,-0.104 0.094,-0.1C0.099,-0.096 0.104,-0.092 0.11,-0.09C0.127,-0.083 0.141,-0.077 0.151,-0.072C0.161,-0.068 0.17,-0.064 0.179,-0.062C0.187,-0.059 0.197,-0.057 0.208,-0.057C0.219,-0.056 0.233,-0.056 0.251,-0.056C0.265,-0.056 0.281,-0.056 0.301,-0.055C0.32,-0.055 0.339,-0.056 0.356,-0.06C0.374,-0.064 0.389,-0.07 0.401,-0.08C0.414,-0.089 0.42,-0.104 0.42,-0.123C0.421,-0.142 0.416,-0.157 0.405,-0.167C0.394,-0.178 0.38,-0.187 0.361,-0.192C0.343,-0.198 0.323,-0.202 0.3,-0.205C0.277,-0.207 0.254,-0.209 0.229,-0.212C0.205,-0.215 0.182,-0.218 0.159,-0.223C0.136,-0.228 0.115,-0.236 0.097,-0.246C0.078,-0.257 0.064,-0.271 0.053,-0.289C0.042,-0.307 0.036,-0.331 0.035,-0.359C0.039,-0.38 0.049,-0.398 0.066,-0.412C0.083,-0.426 0.102,-0.436 0.125,-0.444C0.149,-0.451 0.173,-0.455 0.199,-0.456C0.225,-0.456 0.249,-0.453 0.271,-0.446C0.293,-0.439 0.311,-0.428 0.326,-0.413C0.34,-0.398 0.348,-0.38 0.349,-0.357C0.35,-0.344 0.349,-0.334 0.346,-0.325C0.342,-0.317 0.338,-0.31 0.333,-0.306C0.327,-0.302 0.321,-0.3 0.315,-0.3C0.31,-0.301 0.305,-0.303 0.302,-0.307C0.299,-0.311 0.297,-0.318 0.297,-0.326C0.298,-0.334 0.301,-0.344 0.309,-0.356C0.306,-0.369 0.299,-0.379 0.286,-0.386C0.274,-0.393 0.259,-0.398 0.243,-0.401C0.227,-0.404 0.209,-0.404 0.191,-0.403C0.172,-0.401 0.155,-0.398 0.14,-0.393C0.125,-0.387 0.112,-0.381 0.103,-0.372C0.094,-0.364 0.09,-0.354 0.091,-0.343C0.091,-0.323 0.097,-0.308 0.108,-0.297C0.119,-0.287 0.134,-0.278 0.152,-0.272C0.171,-0.267 0.192,-0.262 0.215,-0.26C0.239,-0.257 0.264,-0.255 0.289,-0.252C0.314,-0.25 0.338,-0.247 0.361,-0.243C0.385,-0.238 0.406,-0.231 0.425,-0.222C0.444,-0.212 0.459,-0.199 0.47,-0.182C0.481,-0.166 0.486,-0.144 0.486,-0.117C0.486,-0.097 0.481,-0.08 0.471,-0.065C0.46,-0.05 0.447,-0.038 0.431,-0.028C0.415,-0.019 0.398,-0.011 0.379,-0.007C0.36,-0.002 0.342,0 0.325,0C0.308,0 0.29,0 0.271,0C0.252,-0.001 0.232,-0.002 0.212,-0.004C0.193,-0.006 0.173,-0.009 0.152,-0.013C0.132,-0.017 0.113,-0.024 0.096,-0.033C0.079,-0.042 0.063,-0.053 0.05,-0.066C0.036,-0.08 0.025,-0.097 0.017,-0.118Z" style="fill-rule:nonzero;"/>
            </g>
            <g transform="matrix(160,0,0,160,1329.95,415.598)">
                <path d="M0.049,-0.028C0.049,-0.03 0.049,-0.033 0.05,-0.039L0.056,-0.075C0.056,-0.08 0.057,-0.084 0.057,-0.085L0.057,-0.095L0.058,-0.137L0.058,-0.17C0.058,-0.176 0.057,-0.183 0.057,-0.19C0.057,-0.197 0.057,-0.203 0.057,-0.208L0.057,-0.216C0.055,-0.246 0.051,-0.278 0.045,-0.311C0.04,-0.345 0.034,-0.378 0.028,-0.411C0.022,-0.444 0.016,-0.477 0.01,-0.509C0.005,-0.541 0.001,-0.57 -0.002,-0.597C0.004,-0.612 0.01,-0.618 0.017,-0.613C0.024,-0.608 0.031,-0.596 0.038,-0.578C0.045,-0.56 0.052,-0.537 0.06,-0.51C0.067,-0.483 0.073,-0.456 0.079,-0.428C0.084,-0.4 0.089,-0.373 0.094,-0.349C0.098,-0.324 0.101,-0.305 0.104,-0.291C0.105,-0.29 0.107,-0.289 0.111,-0.289L0.118,-0.289C0.131,-0.289 0.143,-0.293 0.152,-0.301C0.162,-0.309 0.171,-0.319 0.18,-0.331C0.189,-0.343 0.198,-0.356 0.206,-0.37C0.215,-0.384 0.223,-0.396 0.232,-0.408C0.242,-0.42 0.252,-0.43 0.263,-0.438C0.274,-0.446 0.286,-0.45 0.301,-0.45C0.31,-0.45 0.315,-0.447 0.317,-0.442C0.319,-0.436 0.32,-0.43 0.319,-0.423C0.31,-0.416 0.3,-0.406 0.288,-0.395C0.276,-0.383 0.264,-0.37 0.25,-0.356C0.237,-0.343 0.224,-0.328 0.21,-0.313C0.197,-0.299 0.185,-0.284 0.175,-0.27C0.165,-0.256 0.157,-0.243 0.15,-0.229C0.143,-0.216 0.14,-0.205 0.14,-0.195C0.14,-0.181 0.144,-0.168 0.154,-0.156C0.163,-0.145 0.175,-0.134 0.19,-0.124C0.205,-0.114 0.221,-0.106 0.239,-0.099C0.257,-0.092 0.276,-0.086 0.294,-0.082C0.312,-0.077 0.329,-0.073 0.346,-0.07C0.361,-0.068 0.374,-0.066 0.385,-0.066C0.391,-0.065 0.394,-0.062 0.395,-0.057C0.395,-0.051 0.396,-0.047 0.396,-0.042C0.396,-0.032 0.392,-0.025 0.386,-0.021C0.38,-0.016 0.373,-0.013 0.364,-0.011C0.355,-0.009 0.346,-0.008 0.336,-0.008L0.313,-0.008C0.298,-0.008 0.282,-0.012 0.263,-0.021C0.245,-0.031 0.227,-0.041 0.209,-0.051C0.192,-0.062 0.177,-0.072 0.164,-0.081C0.151,-0.09 0.142,-0.095 0.137,-0.095C0.126,-0.095 0.119,-0.09 0.116,-0.08C0.112,-0.069 0.11,-0.059 0.108,-0.047C0.107,-0.035 0.105,-0.024 0.102,-0.014C0.099,-0.004 0.093,0.001 0.083,0.001C0.075,0.001 0.067,-0.001 0.06,-0.006C0.052,-0.01 0.049,-0.018 0.049,-0.028Z" style="fill-rule:nonzero;"/>
            </g>
            <g transform="matrix(34,0,0,34,885.968,335.668)">
                <path d="M0.02,-0.39C0.02,-0.405 0.024,-0.417 0.034,-0.426C0.043,-0.435 0.055,-0.442 0.069,-0.447C0.084,-0.452 0.099,-0.457 0.117,-0.461C0.134,-0.465 0.15,-0.469 0.166,-0.474C0.181,-0.478 0.194,-0.484 0.206,-0.492C0.218,-0.499 0.226,-0.509 0.23,-0.522L0.294,-0.733C0.295,-0.736 0.298,-0.74 0.303,-0.745C0.308,-0.75 0.312,-0.753 0.313,-0.753C0.33,-0.753 0.344,-0.749 0.355,-0.74C0.366,-0.732 0.376,-0.721 0.385,-0.708C0.394,-0.695 0.402,-0.68 0.409,-0.664C0.416,-0.648 0.424,-0.632 0.431,-0.616C0.439,-0.601 0.446,-0.586 0.454,-0.574C0.462,-0.561 0.471,-0.551 0.481,-0.545C0.493,-0.546 0.506,-0.548 0.521,-0.55C0.535,-0.552 0.551,-0.553 0.567,-0.554C0.583,-0.555 0.598,-0.555 0.614,-0.554C0.629,-0.553 0.643,-0.55 0.655,-0.545C0.667,-0.541 0.677,-0.533 0.684,-0.522C0.692,-0.512 0.695,-0.498 0.695,-0.481C0.695,-0.462 0.691,-0.446 0.681,-0.434C0.672,-0.422 0.661,-0.41 0.65,-0.399C0.639,-0.388 0.628,-0.377 0.619,-0.365C0.609,-0.353 0.604,-0.337 0.604,-0.317C0.604,-0.295 0.606,-0.275 0.61,-0.259C0.613,-0.243 0.618,-0.227 0.624,-0.211C0.63,-0.195 0.637,-0.178 0.645,-0.158C0.652,-0.138 0.661,-0.113 0.67,-0.083L0.67,-0.063C0.662,-0.045 0.653,-0.035 0.643,-0.032C0.633,-0.029 0.622,-0.03 0.61,-0.036C0.598,-0.042 0.585,-0.051 0.572,-0.063C0.558,-0.074 0.545,-0.085 0.531,-0.096C0.518,-0.106 0.504,-0.115 0.49,-0.122C0.477,-0.129 0.463,-0.131 0.45,-0.127C0.435,-0.127 0.421,-0.124 0.41,-0.118C0.398,-0.111 0.388,-0.104 0.379,-0.094C0.37,-0.085 0.361,-0.074 0.353,-0.063C0.345,-0.052 0.336,-0.041 0.328,-0.032C0.319,-0.022 0.309,-0.014 0.299,-0.008C0.289,-0.001 0.277,0.002 0.264,0.002C0.26,0.002 0.256,0.002 0.25,0.002C0.244,0.003 0.238,0.002 0.232,0.001C0.227,0 0.221,-0.003 0.217,-0.006C0.212,-0.009 0.21,-0.014 0.21,-0.021L0.21,-0.23C0.21,-0.242 0.205,-0.252 0.196,-0.26C0.186,-0.268 0.175,-0.275 0.161,-0.281C0.147,-0.288 0.131,-0.294 0.115,-0.3C0.098,-0.306 0.083,-0.313 0.069,-0.32C0.055,-0.328 0.043,-0.337 0.034,-0.348C0.024,-0.359 0.02,-0.373 0.02,-0.39Z" style="fill-rule:nonzero;"/>
            </g>
        </g>
    </g>
    <g transform="matrix(0.352076,0,0,0.352076,-0.000338672,7.78681)">
        <path d="M306.003,204.114C248.089,202.403 190.208,205.081 132.289,205.305C127.764,205.32 124.436,207.166 122.252,209.865C119.492,212.044 117.593,215.403 117.593,220.001C117.598,235.459 117.702,250.911 118.728,266.343C119.279,274.727 125.893,279.043 132.449,279.348C134.285,280.378 136.458,281.038 139.068,281.038C197.467,281.038 255.864,281.104 314.251,282.166C317.415,282.222 319.989,281.363 322.005,279.952C325.636,277.94 328.17,274.178 327.815,268.602C326.728,251.271 325.581,233.94 324.422,216.614C323.731,206.178 313.682,202.025 306.003,204.114ZM145.344,253.917C145.075,246.722 145.045,239.516 144.95,232.32C196.057,231.838 247.144,229.893 298.249,231.066C298.768,239.003 299.285,246.934 299.804,254.877C248.318,254.074 196.835,253.926 145.344,253.917Z" style="fill-rule:nonzero;"/>
    </g>
    <g transform="matrix(0.352076,0,0,0.352076,-0.000338672,-7.21319)">
        <path d="M436.183,105.685C436.229,104.101 435.98,102.39 435.269,100.544C426.281,77.185 417.054,53.969 403.389,32.882C400.286,28.099 395.686,26.372 391.233,26.685C390.314,26.431 389.329,26.248 388.283,26.164C282.193,18.105 175.848,20.949 69.563,21.078C63.188,21.091 59.164,24.709 57.437,29.289C37.734,47.766 21.261,69.345 6.993,92.218C6.52,92.972 6.188,93.721 5.881,94.47C3.41,96.648 1.753,99.858 1.753,104.151C1.748,120.012 1.535,135.82 0.057,151.62C-0.063,152.938 0.021,154.119 0.202,155.236C0.151,155.723 0.057,156.193 0.057,156.706C0.057,163.518 6.249,171.038 13.618,170.269C21.527,169.441 29.446,169.03 37.373,168.811C37.716,256.17 41.839,317.939 35.656,405.919C35.349,410.245 36.794,413.481 39.14,415.653C41.308,418.614 44.647,420.802 49.217,421.178C164.419,430.567 279.726,421.554 395.063,421.178C396.49,421.173 397.759,420.929 398.947,420.594C405.336,420.102 411.576,415.795 412.018,407.61C416.542,323.544 417.05,263.462 417.096,182.082C423.377,181.731 429.668,180.843 435.965,179.949C442.486,179.022 446.274,171.644 445.796,165.497C445.858,164.837 445.948,164.197 445.923,163.481C445.242,144.111 442.49,125.927 436.966,107.324C436.777,106.696 436.432,106.249 436.183,105.685ZM76.893,48.177C179.227,47.936 281.609,45.534 383.758,53.001C391.791,66.501 398.296,80.666 404.151,95.204C284.509,81.809 164.095,80.945 43.896,86.046C53.735,72.48 64.556,59.719 76.893,48.177ZM385.541,394.16C278.111,394.932 170.704,402.458 63.392,395.069C68.477,311.588 64.915,255.131 64.524,171.557C172.802,168.307 280.975,174.568 389.228,176.736C389.471,176.965 389.706,177.198 389.964,177.411C389.933,258.583 389.506,312.922 385.541,394.16ZM413.966,155.193C411.808,152.164 408.37,150.001 403.546,149.922C291.059,148.086 178.666,141.107 66.155,144.389C64.045,142.599 61.247,141.444 57.695,141.444C47.742,141.444 37.812,141.561 27.895,142.079C28.499,132.685 28.689,123.278 28.778,113.861C156.997,107.912 285.508,108.27 413.112,123.24C415.727,133.723 417.433,144.192 418.281,154.998C416.841,155.112 415.399,155.178 413.966,155.193Z" style="fill-rule:nonzero;"/>
    </g>
</svg>
