<svg xmlns="http://www.w3.org/2000/svg" xmlns:xlink="http://www.w3.org/1999/xlink" width="977" height="299" viewBox="0 0 977 299"><defs><clipPath id="b"><rect width="977" height="299"/></clipPath></defs><g id="a" clip-path="url(#b)"><g transform="translate(-411 -229)"><g transform="translate(411 229)"><path d="M4.808-36.114H29.25l35.033,76.2,35.2-76.2h24.279V77.705H100.131V13.061L69.985,77.705H58.577L28.6,13.061V77.705H4.808Zm174.35,0h24.28L248.9,77.705H223.641l-9.777-24.75H168.733l-9.777,24.75H133.538Zm28.19,69.366L191.216-10.061,175.085,33.252Zm101.5,46.9q-18.25,0-32.262-7.246a51.868,51.868,0,0,1-21.671-20.6q-7.658-13.352-7.658-31.426t7.658-31.508A51.721,51.721,0,0,1,276.588-31.31q14.01-7.246,32.262-7.246a85.949,85.949,0,0,1,21.915,2.524,57.483,57.483,0,0,1,17.512,7.9v23.61A45.877,45.877,0,0,0,331.9-13.071a74.791,74.791,0,0,0-20.939-2.687,42.343,42.343,0,0,0-19.635,4.478A33.968,33.968,0,0,0,277.563,1.5a36.545,36.545,0,0,0-5.052,19.377A39.857,39.857,0,0,0,277.156,40.5a32.046,32.046,0,0,0,13.117,12.945A40.628,40.628,0,0,0,309.826,58a40.413,40.413,0,0,0,17.6-3.58V32.438H309.011V14.2h42.365V69.075q-16.131,11.073-42.527,11.073ZM371.262-36.109h24.767V77.705H371.262ZM474.489,80.148q-18.25,0-32.262-7.246a51.867,51.867,0,0,1-21.671-20.6Q412.9,38.95,412.9,20.876t7.658-31.508A51.72,51.72,0,0,1,442.227-31.31q14.01-7.246,32.262-7.246,23.626,0,39.427,10.747V-4.362a44.556,44.556,0,0,0-16.375-8.711A74.793,74.793,0,0,0,476.6-15.76q-17.761,0-28.107,9.851T438.148,20.877q0,17.1,10.428,26.948T476.6,57.676a72.848,72.848,0,0,0,21.346-2.85,52.167,52.167,0,0,0,17.272-9.2V69.075Q500.234,80.148,474.489,80.148Zm108.6-116.262h39.6q18.576,0,32.422,6.839a49.675,49.675,0,0,1,21.349,19.54q7.5,12.7,7.5,29.961,0,28.333-16.538,42.906T621.38,77.705H583.089Zm39.6,93.139q17.435,0,26.719-9.77t9.287-27.03a40.557,40.557,0,0,0-4.074-18.4,29.852,29.852,0,0,0-11.9-12.7,35.911,35.911,0,0,0-18.413-4.559H607.856v72.46Zm74.952-93.139h79.029v20.679h-54.26v26.38h39.92V30.81h-39.92V57.026h54.26V77.705H697.638Zm125.3,116.262a110.461,110.461,0,0,1-20.707-1.956,65.317,65.317,0,0,1-16.771-5.209V51.164a81.974,81.974,0,0,0,17.923,6.35,79.945,79.945,0,0,0,17.761,2.117q9.451,0,14.339-3.257a10.355,10.355,0,0,0,4.888-9.119,10.814,10.814,0,0,0-2.444-7.165,22.152,22.152,0,0,0-7.088-5.292q-4.644-2.361-14.258-6.269-15.967-6.512-23.139-14.572T786.279-5.99a28.829,28.829,0,0,1,5.215-17.016,33.713,33.713,0,0,1,14.662-11.479,54.781,54.781,0,0,1,21.834-4.071,88.522,88.522,0,0,1,17.923,1.628,72.34,72.34,0,0,1,15.321,5.048v21.168a63.668,63.668,0,0,0-28.678-7.165q-9.124,0-14.339,3.175A10.021,10.021,0,0,0,813-5.665a10.189,10.189,0,0,0,2.444,7A21.315,21.315,0,0,0,822.29,6.22q4.4,2.117,14.339,6.188a104.645,104.645,0,0,1,18.086,9.363,28.591,28.591,0,0,1,9.614,10.584q3.1,6.106,3.1,15.062,0,15.469-11.162,24.1T822.941,80.148ZM881.275-36.114h24.767v49.5l43.017-49.5h29.492L930.318,19.411,981.808,77.7H952.319L906.043,25.436V77.705H881.275Z" transform="translate(-4.808 129.06)"/><g transform="translate(353.164 30.154)"><g transform="matrix(0.961, 0.276, -0.276, 0.961, 10.303, 0)"><path d="M17.7,28.6l10.916,8.776-4.13-14.3L35.4,14.627H22.128L17.7,0,13.277,14.627H0l10.916,8.451-4.13,14.3Z"/></g></g><g transform="translate(386.352 3.015)"><g transform="matrix(0.961, 0.276, -0.276, 0.961, 6.018, 0)"><path d="M10.34,16.707l6.376,5.126L14.3,13.479l6.376-4.936H12.924L10.34,0,7.755,8.543H0l6.376,4.936L3.963,21.833Z"/></g></g><g transform="translate(359.192)"><g transform="matrix(0.961, 0.276, -0.276, 0.961, 3.276, 0)"><path d="M5.628,9.093l3.47,2.79L7.785,7.337l3.47-2.687H7.035L5.628,0,4.221,4.65H0L3.47,7.337,2.157,11.884Z"/></g></g></g></g></g></svg>