<svg xmlns="http://www.w3.org/2000/svg" xmlns:xlink="http://www.w3.org/1999/xlink" width="129" height="129" viewBox="0 0 129 129"><defs><clipPath id="a"><path d="M0,0H35V35H0Z" fill="#fff"/></clipPath><clipPath id="c"><rect width="129" height="129"/></clipPath></defs><g id="b" clip-path="url(#c)"><rect width="129" height="129"/><g transform="translate(4 90)"><path d="M0,0H35V35H0Z" fill="none"/><path d="M31,2H4A2.912,2.912,0,0,0,1,4.8V21.58a2.912,2.912,0,0,0,3,2.8H14.5v2.8h-3v2.8h12v-2.8h-3v-2.8H31a2.912,2.912,0,0,0,3-2.8V4.8A2.912,2.912,0,0,0,31,2Zm0,19.58H4V4.8H31Z" transform="translate(0 1.029)" fill="#fff"/></g><g transform="translate(47 90)"><path d="M0,0H35V35H0Z" fill="none"/><path d="M19.935,18.725,15.1,13.887V10.04a3.629,3.629,0,1,0-2.419,0v3.847L7.839,18.725H3v6.048H9.048V21.084L13.887,16l4.839,5.08v3.689h6.048V18.725Z" transform="translate(4 3.227)" fill="#fff"/><path d="M0,0H35V35H0Z" fill="none"/></g><g transform="translate(90 90)"><path d="M29.9,5H5.1A3.1,3.1,0,0,0,2.016,8.1L2,23.61a3.11,3.11,0,0,0,3.1,3.1H29.9a3.11,3.11,0,0,0,3.1-3.1V8.1A3.11,3.11,0,0,0,29.9,5ZM15.95,9.652h3.1v3.1h-3.1Zm0,4.652h3.1v3.1h-3.1ZM11.3,9.652h3.1v3.1H11.3Zm0,4.652h3.1v3.1H11.3Zm-1.55,3.1H6.65V14.3h3.1Zm0-4.652H6.65v-3.1h3.1ZM23.7,23.61H11.3v-3.1H23.7Zm0-6.2H20.6V14.3h3.1Zm0-4.652H20.6v-3.1h3.1Zm4.65,4.652h-3.1V14.3h3.1Zm0-4.652h-3.1v-3.1h3.1Z" transform="translate(0 1.289)" fill="#fff"/><path d="M0,0H35V35H0ZM0,0H35V35H0Z" fill="none"/></g><g transform="translate(47 47)"><path d="M0,0H35V35H0Z" fill="none"/><path d="M22.333,12.667H12.667v9.667h9.667Zm-3.222,6.444H15.889V15.889h3.222ZM32,15.889V12.667H28.778V9.444a3.232,3.232,0,0,0-3.222-3.222H22.333V3H19.111V6.222H15.889V3H12.667V6.222H9.444A3.232,3.232,0,0,0,6.222,9.444v3.222H3v3.222H6.222v3.222H3v3.222H6.222v3.222a3.232,3.232,0,0,0,3.222,3.222h3.222V32h3.222V28.778h3.222V32h3.222V28.778h3.222a3.232,3.232,0,0,0,3.222-3.222V22.333H32V19.111H28.778V15.889Zm-6.444,9.667H9.444V9.444H25.556Z" fill="#fff"/></g><g transform="translate(90 47)"><path d="M0,0H35V35H0Z" fill="none"/><path d="M17.127,1.07V12.978h10.21A11.88,11.88,0,0,0,17.127,1.07ZM4,21.987A11.841,11.841,0,0,0,15.668,34,11.841,11.841,0,0,0,27.337,21.987V15.981H4ZM14.21,1.07A11.88,11.88,0,0,0,4,12.978H14.21V1.07Z" transform="translate(2)" fill="#fff"/></g><g transform="translate(4 4)"><path d="M20.643,1H8.724A3.739,3.739,0,0,0,5,4.75v25.5A3.739,3.739,0,0,0,8.724,34H20.643a3.739,3.739,0,0,0,3.724-3.75V4.75A3.739,3.739,0,0,0,20.643,1ZM14.684,32.5a2.25,2.25,0,1,1,2.235-2.25A2.239,2.239,0,0,1,14.684,32.5Zm6.7-6H7.98V5.5H21.388Z" transform="translate(3)" fill="#fff"/><path d="M0,0H35V35H0Z" fill="none"/></g><g transform="translate(47 4)"><path d="M28.35,11.056H6.65A4.738,4.738,0,0,0,2,15.889v9.667H8.2V32H26.8V25.556H33V15.889A4.738,4.738,0,0,0,28.35,11.056ZM23.7,28.778H11.3V20.722H23.7ZM28.35,17.5a1.612,1.612,0,1,1,1.55-1.611A1.586,1.586,0,0,1,28.35,17.5ZM26.8,3H8.2V9.444H26.8Z" transform="translate(0)" fill="#fff"/><path d="M0,0H35V35H0Z" fill="none"/></g><g transform="translate(4 47)"><path d="M0,0H35V35H0Z" fill="none"/><path d="M30.711,7.672,32,6.383a11.282,11.282,0,0,0-16.111,0l1.289,1.289a10.076,10.076,0,0,1,6.767-2.739,10.076,10.076,0,0,1,6.767,2.739Zm-1.45,1.289a7.394,7.394,0,0,0-10.633,0l1.289,1.289a5.84,5.84,0,0,1,8.056,0Zm-.483,10.15H25.556V12.667H22.333v6.444H6.222A3.232,3.232,0,0,0,3,22.333v6.444A3.232,3.232,0,0,0,6.222,32H28.778A3.232,3.232,0,0,0,32,28.778V22.333A3.232,3.232,0,0,0,28.778,19.111ZM11.056,27.167H7.833V23.944h3.222Zm5.639,0H13.472V23.944h3.222Zm5.639,0H19.111V23.944h3.222Z" fill="#fff"/></g><g transform="translate(90 4)" clip-path="url(#a)"><path d="M29.167,24.417A2.925,2.925,0,0,0,32.083,21.5V6.917A2.925,2.925,0,0,0,29.167,4H5.833A2.925,2.925,0,0,0,2.917,6.917V21.5a2.925,2.925,0,0,0,2.917,2.917H0v2.917H35V24.417ZM5.833,6.917H29.167V21.5H5.833Z" transform="translate(0 1.833)" fill="#fff"/></g></g></svg>