<?xml version="1.0" standalone="no"?>
<!DOCTYPE svg PUBLIC "-//W3C//DTD SVG 20010904//EN"
 "http://www.w3.org/TR/2001/REC-SVG-20010904/DTD/svg10.dtd">
<svg version="1.0" xmlns="http://www.w3.org/2000/svg"
 width="700.000000pt" height="700.000000pt" viewBox="0 0 700.000000 700.000000"
 preserveAspectRatio="xMidYMid meet">
<metadata>
Created by potrace 1.11, written by Peter Selinger 2001-2013
</metadata>
<g transform="translate(0.000000,700.000000) scale(0.100000,-0.100000)"
fill="#000000" stroke="none">
<path d="M4842 6539 c-40 -10 -89 -26 -110 -35 -150 -70 -268 -211 -312 -377
-49 -179 0 -391 119 -525 30 -34 30 -34 12 -60 -11 -15 -75 -121 -144 -237
-68 -115 -137 -232 -153 -258 -16 -27 -33 -56 -39 -65 -5 -10 -39 -66 -74
-125 -63 -107 -74 -144 -52 -171 18 -21 148 -97 176 -102 15 -3 32 4 48 18 14
13 131 202 262 421 l237 399 36 -7 c21 -4 73 -9 117 -10 250 -9 478 153 560
397 58 174 28 359 -82 515 -132 187 -379 278 -601 222z"/>
<path d="M1625 5715 c-352 -80 -541 -445 -406 -783 85 -212 298 -356 526 -355
98 0 169 16 253 55 62 29 64 29 85 11 19 -15 119 -109 191 -178 169 -162 180
-166 263 -77 30 31 62 67 70 79 25 37 8 74 -60 135 -34 31 -113 105 -175 165
l-112 108 26 64 c108 265 0 573 -251 716 -117 66 -279 90 -410 60z"/>
<path d="M3300 4471 c-231 -51 -426 -171 -572 -353 -87 -107 -163 -262 -189
-383 -7 -33 -14 -67 -17 -75 -2 -8 -5 -71 -7 -140 -8 -305 114 -575 351 -780
116 -100 311 -191 467 -218 98 -17 348 -6 410 17 12 5 24 8 27 8 17 -1 126 42
190 75 284 148 480 427 525 748 7 50 8 207 0 260 -34 256 -183 509 -390 663
-97 72 -183 116 -294 151 -111 35 -122 37 -281 41 -105 3 -154 0 -220 -14z
m314 -499 c49 -114 91 -210 95 -214 3 -3 42 -9 86 -12 44 -4 100 -9 125 -11
25 -2 80 -7 122 -10 167 -13 177 -30 71 -122 -37 -32 -73 -63 -80 -70 -7 -6
-54 -47 -104 -89 -89 -76 -90 -79 -84 -113 5 -30 43 -201 86 -380 9 -40 4 -57
-20 -64 -10 -2 -97 44 -213 115 l-196 119 -104 -62 c-56 -34 -126 -77 -155
-95 -28 -19 -54 -34 -57 -34 -3 0 -22 -11 -42 -25 -29 -20 -40 -22 -56 -14
-27 15 -27 15 53 348 17 68 29 124 27 125 -3 2 -138 118 -164 141 -6 6 -40 35
-75 65 -92 80 -109 97 -109 114 0 27 21 33 145 41 44 3 96 8 115 10 19 2 73 7
120 10 47 4 89 10 93 15 5 4 47 97 93 206 82 193 103 228 128 218 7 -3 52 -98
100 -212z"/>
<path d="M6048 3825 c-2 -2 -25 -5 -52 -8 -170 -21 -330 -134 -422 -299 -22
-40 -45 -72 -50 -72 -5 1 -40 5 -79 9 -38 3 -88 8 -110 11 -50 5 -111 11 -200
19 -38 3 -81 8 -95 10 -14 2 -59 7 -100 10 -67 6 -77 4 -97 -14 -33 -31 -51
-186 -27 -233 14 -28 29 -32 149 -43 33 -4 76 -8 95 -10 19 -2 64 -7 100 -10
36 -4 79 -8 95 -10 17 -2 68 -7 115 -11 47 -3 92 -8 100 -10 8 -1 20 -3 26 -3
7 -1 23 -38 37 -83 130 -415 648 -544 956 -239 356 352 121 958 -382 985 -31
2 -58 2 -59 1z"/>
<path d="M1725 3060 c-225 -76 -410 -138 -410 -137 -7 21 -103 119 -150 152
-292 208 -701 103 -855 -219 -102 -214 -61 -475 102 -646 250 -266 688 -230
897 73 56 82 96 207 100 317 1 25 5 48 9 51 4 4 193 68 419 144 458 152 460
153 441 223 -26 98 -52 161 -72 174 -26 18 -92 -1 -481 -132z"/>
<path d="M3780 2220 c-104 -25 -125 -55 -100 -140 6 -19 13 -48 16 -65 2 -16
7 -38 10 -47 3 -9 6 -25 8 -35 2 -10 25 -107 50 -216 25 -110 46 -206 46 -216
0 -9 -17 -25 -37 -36 -55 -29 -154 -131 -191 -196 -56 -99 -75 -171 -75 -294
0 -89 4 -123 22 -175 61 -174 193 -309 367 -372 90 -33 255 -35 351 -4 192 62
318 188 383 381 54 157 17 382 -81 510 -101 130 -242 214 -390 232 l-64 8 -26
115 c-113 490 -123 531 -141 550 -22 24 -48 24 -148 0z"/>
</g>
</svg>
