<?xml version="1.0" standalone="no"?>
<!DOCTYPE svg PUBLIC "-//W3C//DTD SVG 20010904//EN"
 "http://www.w3.org/TR/2001/REC-SVG-20010904/DTD/svg10.dtd">
<svg version="1.0" xmlns="http://www.w3.org/2000/svg"
 width="700.000000pt" height="700.000000pt" viewBox="0 0 700.000000 700.000000"
 preserveAspectRatio="xMidYMid meet">
<metadata>
Created by potrace 1.11, written by Peter Selinger 2001-2013
</metadata>
<g transform="translate(0.000000,700.000000) scale(0.100000,-0.100000)"
fill="#000000" stroke="none">
<path d="M580 3485 l0 -1405 290 0 290 0 0 797 c0 438 4 793 8 788 5 -6 170
-359 367 -785 197 -426 362 -781 368 -788 7 -9 45 -12 145 -10 l135 3 371 795
371 795 3 -797 2 -798 290 0 290 0 0 1405 0 1405 -301 -2 -301 -3 -430 -933
c-237 -513 -434 -929 -439 -925 -4 4 -199 424 -432 933 l-425 925 -301 3 -301
2 0 -1405z"/>
<path d="M3932 3488 l3 -1403 425 -3 c608 -4 888 14 1095 73 496 140 797 438
916 905 52 206 63 534 24 745 -101 557 -499 938 -1105 1057 -110 21 -140 22
-738 26 l-622 3 2 -1403z m1325 557 l118 -355 355 -2 355 -3 -270 -189 c-148
-104 -280 -197 -291 -206 l-22 -16 109 -340 c60 -186 107 -342 106 -346 -1 -3
-128 86 -282 199 -154 113 -285 207 -292 210 -6 2 -141 -90 -299 -206 -159
-115 -290 -209 -291 -207 -1 1 47 157 107 346 60 190 106 347 102 351 -4 3
-135 96 -291 205 l-284 199 356 3 356 2 118 355 c65 195 119 355 120 355 1 0
55 -160 120 -355z"/>
</g>
</svg>
